<svg width="198" height="122" viewBox="0 0 198 122" fill="none" xmlns="http://www.w3.org/2000/svg">
<path d="M138 79.3381L138 7.00001C138 3.68631 135.314 1.00001 132 1.00001L46.0411 1L7 1.00001C3.68629 1.00001 1 3.6863 0.999999 7.00001L1 79.3381C1 82.6518 3.68629 85.3381 7 85.3381L29.1507 85.3381L43.9412 103.431C45.0652 104.806 47.1309 104.909 48.3861 103.653L66.6849 85.3381L132 85.3381C135.314 85.3381 138 82.6518 138 79.3381Z" fill="white" stroke="#E0E0E0" stroke-width="2" stroke-linecap="round" stroke-linejoin="round"/>
<path d="M112.796 100.063L112.796 61.2852C112.796 57.9715 115.483 55.2852 118.796 55.2852L168.211 55.2852L189.353 55.2852C192.667 55.2852 195.353 57.9715 195.353 61.2852L195.353 100.063C195.353 103.377 192.667 106.063 189.353 106.063L178.389 106.063L168.211 118.503L155.771 106.063L118.796 106.063C115.483 106.063 112.796 103.377 112.796 100.063Z" fill="white" stroke="#24DAC6" stroke-width="5" stroke-linecap="round" stroke-linejoin="round"/>
<path d="M110 27L29 27" stroke="#F2F2F2" stroke-width="5" stroke-linecap="round" stroke-linejoin="round"/>
<path d="M110 43L29 43" stroke="#F2F2F2" stroke-width="5" stroke-linecap="round" stroke-linejoin="round"/>
<path d="M86.4419 59L29 59" stroke="#F2F2F2" stroke-width="5" stroke-linecap="round" stroke-linejoin="round"/>
</svg>
